<svg width="75" height="75" viewBox="0 0 75 75" fill="none" xmlns="http://www.w3.org/2000/svg">
<g id="front-development-1-1 1">
<g id="Clip path group">
<g id="Group">
<path id="Vector" d="M69.2604 6.31389C66.7206 3.77414 62.5492 3.96076 60.2464 6.71716L49.8452 19.1669L56.4076 25.7292L68.8573 15.3279C71.6133 13.025 71.7999 8.85348 69.2604 6.31389Z" stroke="#0077FF" stroke-width="2" stroke-miterlimit="10" stroke-linecap="round" stroke-linejoin="round"/>
<path id="Vector_2" d="M73.9027 27.6047V60.7529C73.9027 66.1241 69.5489 70.4794 64.1777 70.4794H55.1841C60.5552 70.4794 64.909 66.1241 64.909 60.7529V27.6047H73.9027Z" stroke="#0077FF" stroke-width="2" stroke-miterlimit="10" stroke-linecap="round" stroke-linejoin="round"/>
<path id="Vector_3" d="M13.0082 22.448C14.6242 22.448 15.9344 21.138 15.9344 19.5219C15.9344 17.9057 14.6242 16.5957 13.0082 16.5957C11.3921 16.5957 10.082 17.9057 10.082 19.5219C10.082 21.138 11.3921 22.448 13.0082 22.448Z" stroke="#0077FF" stroke-width="2" stroke-miterlimit="10" stroke-linecap="round" stroke-linejoin="round"/>
<path id="Vector_4" d="M23.3432 22.448C24.9591 22.448 26.2693 21.138 26.2693 19.5219C26.2693 17.9057 24.9591 16.5957 23.3432 16.5957C21.727 16.5957 20.417 17.9057 20.417 19.5219C20.417 21.138 21.727 22.448 23.3432 22.448Z" stroke="#0077FF" stroke-width="2" stroke-miterlimit="10" stroke-linecap="round" stroke-linejoin="round"/>
<path id="Vector_5" d="M33.6778 22.448C35.2937 22.448 36.6039 21.138 36.6039 19.5219C36.6039 17.9057 35.2937 16.5957 33.6778 16.5957C32.0616 16.5957 30.7515 17.9057 30.7515 19.5219C30.7515 21.138 32.0616 22.448 33.6778 22.448Z" stroke="#0077FF" stroke-width="2" stroke-miterlimit="10" stroke-linecap="round" stroke-linejoin="round"/>
<path id="Vector_6" d="M49.8453 19.1667L56.2503 11.5004C55.8996 11.4622 55.5438 11.4409 55.1828 11.4409H10.825C5.45391 11.4409 1.09863 15.7947 1.09863 21.1673V27.6044H37.8528C40.2049 24.7458 40.8173 21.0068 49.8453 19.1667Z" stroke="#0077FF" stroke-width="2" stroke-miterlimit="10" stroke-linecap="round" stroke-linejoin="round"/>
<path id="Vector_7" d="M56.4088 25.7281C56.2787 26.3797 56.1129 27.0044 55.9165 27.6034H64.909V21.1663C64.909 20.3709 64.8114 19.5986 64.6312 18.8586L56.4088 25.7281Z" stroke="#0077FF" stroke-width="2" stroke-miterlimit="10" stroke-linecap="round" stroke-linejoin="round"/>
<path id="Vector_8" d="M70.2858 13.6003C69.9312 14.2398 69.4548 14.8272 68.857 15.3266L64.6299 18.8584C64.8099 19.5984 64.9075 20.3706 64.9075 21.166V27.6032H73.9012V21.166C73.9012 18.1091 72.4904 15.3833 70.2858 13.6003Z" stroke="#0077FF" stroke-width="2" stroke-miterlimit="10" stroke-linecap="round" stroke-linejoin="round"/>
<path id="Vector_9" d="M55.9151 27.6047C53.343 35.4478 45.3297 38.6856 38.1957 34.7309C35.821 33.4144 35.3606 30.1788 37.272 28.2504C37.4792 28.0413 37.6711 27.8256 37.8528 27.6047H1.09863V60.7529C1.09863 66.1241 5.45391 70.4794 10.825 70.4794H55.1828C60.554 70.4794 64.9078 66.1241 64.9078 60.7529V27.6047H55.9151Z" stroke="#0077FF" stroke-width="2" stroke-miterlimit="10" stroke-linecap="round" stroke-linejoin="round"/>
<path id="Vector_10" d="M49.8457 19.1669C40.1202 21.1491 40.1616 25.3351 37.2726 28.25C35.3612 30.1786 35.8215 33.414 38.1961 34.7305C45.8749 38.9874 54.5738 34.9122 56.4079 25.7292L49.8457 19.1669Z" stroke="#0077FF" stroke-width="2" stroke-miterlimit="10" stroke-linecap="round" stroke-linejoin="round"/>
<path id="Vector_11" d="M24.9138 41.6597H13.8415C11.7653 41.6597 10.082 43.3429 10.082 45.4192V56.4916C10.082 58.5678 11.7653 60.251 13.8415 60.251H24.9138C26.9902 60.251 28.6734 58.5678 28.6734 56.4916V45.4192C28.6734 43.3429 26.9902 41.6597 24.9138 41.6597Z" stroke="#0077FF" stroke-width="2" stroke-miterlimit="10" stroke-linecap="round" stroke-linejoin="round"/>
<path id="Vector_12" d="M53.402 42.2482H37.5256C35.8656 42.2482 34.52 43.5938 34.52 45.2537C34.52 46.9137 35.8656 48.2593 37.5256 48.2593H53.4022C55.0621 48.2593 56.4077 46.9137 56.4077 45.2537C56.4077 43.5938 55.062 42.2482 53.402 42.2482Z" stroke="#0077FF" stroke-width="2" stroke-miterlimit="10" stroke-linecap="round" stroke-linejoin="round"/>
<path id="Vector_13" d="M53.402 53.6514H37.5256C35.8656 53.6514 34.52 54.997 34.52 56.6569C34.52 58.3169 35.8656 59.6625 37.5256 59.6625H53.4022C55.0621 59.6625 56.4077 58.3169 56.4077 56.6569C56.4077 54.9971 55.062 53.6514 53.402 53.6514Z" stroke="#0077FF" stroke-width="2" stroke-miterlimit="10" stroke-linecap="round" stroke-linejoin="round"/>
</g>
</g>
</g>
</svg>
