<svg width="21" height="21" viewBox="0 0 21 21" fill="none" xmlns="http://www.w3.org/2000/svg">
<g id="icon-download 1" clip-path="url(#clip0_5118_171)">
<path id="Vector" d="M10.6313 1.125C10.4014 1.12506 10.181 1.21638 10.0185 1.3789C9.85599 1.54142 9.76467 1.76183 9.76461 1.99167V11.8788L6.45024 8.56438C6.36975 8.4839 6.27419 8.42007 6.16904 8.37652C6.06388 8.33297 5.95117 8.31055 5.83735 8.31057C5.60748 8.31059 5.38704 8.40192 5.2245 8.56448C5.06198 8.72703 4.97068 8.9475 4.9707 9.17737C4.97073 9.40723 5.06206 9.62768 5.22461 9.79021L10.0184 14.5833C10.181 14.7458 10.4014 14.8371 10.6313 14.8371C10.8611 14.8371 11.0816 14.7458 11.2442 14.5833L16.038 9.78938C16.2005 9.62684 16.2919 9.4064 16.2919 9.17653C16.2919 8.94667 16.2005 8.7262 16.0381 8.56364C15.8755 8.40109 15.6551 8.30975 15.4252 8.30973C15.1953 8.30972 14.9749 8.40101 14.8123 8.56354L11.4979 11.8788V1.99167C11.4979 1.76183 11.4066 1.54142 11.244 1.3789C11.0815 1.21638 10.8611 1.12506 10.6313 1.125Z" fill="#0077FF"/>
<path id="Vector_2" d="M2.12204 12.5845C1.89218 12.5845 1.67174 12.6758 1.50921 12.8382C1.34668 13.0008 1.25537 13.2213 1.25537 13.4511V16.3069C1.25642 17.2529 1.63268 18.1599 2.3016 18.8288C2.97054 19.4978 3.87749 19.874 4.82349 19.875H16.4373C17.3833 19.874 18.2903 19.4978 18.9591 18.8288C19.628 18.1599 20.0044 17.2529 20.0054 16.3069V13.4511C20.0054 13.3373 19.9829 13.2246 19.9394 13.1195C19.8958 13.0143 19.832 12.9188 19.7515 12.8382C19.671 12.7578 19.5755 12.694 19.4704 12.6505C19.3653 12.6069 19.2525 12.5845 19.1387 12.5845C19.0249 12.5845 18.9121 12.6069 18.807 12.6505C18.7019 12.694 18.6064 12.7578 18.5259 12.8382C18.4454 12.9188 18.3816 13.0143 18.338 13.1195C18.2945 13.2246 18.272 13.3373 18.272 13.4511V16.3069C18.2715 16.7934 18.078 17.2598 17.734 17.6037C17.39 17.9477 16.9237 18.1411 16.4373 18.1417H4.82349C4.33705 18.1411 3.87068 17.9477 3.52672 17.6037C3.18274 17.2598 2.98926 16.7934 2.9887 16.3069V13.4511C2.98873 13.3373 2.96634 13.2246 2.92279 13.1195C2.87925 13.0143 2.8154 12.9187 2.73493 12.8382C2.65444 12.7577 2.55889 12.6939 2.45373 12.6504C2.34857 12.6068 2.23586 12.5845 2.12204 12.5845Z" fill="#0077FF"/>
</g>
<defs>
<clipPath id="clip0_5118_171">
<rect width="20" height="20" fill="white" transform="translate(0.630371 0.5)"/>
</clipPath>
</defs>
</svg>
